<svg width="33" height="33" viewBox="0 0 33 33" fill="none" xmlns="http://www.w3.org/2000/svg">
<g clip-path="url(#clip0_242_1704)">
<path d="M33 16.5C33 25.6127 25.6127 33 16.5 33C7.38731 33 0 25.6127 0 16.5C0 7.3873 7.38731 0 16.5 0C25.6127 0 33 7.3873 33 16.5V16.5Z" fill="#324A5E"/>
<path d="M16.5 22.1897C15.3708 22.1897 14.3431 21.8854 13.4161 21.278C12.4891 20.67 11.7942 19.8883 11.3314 18.9328L6.77161 10.9409C5.81614 12.6496 5.38184 14.5606 5.38184 16.5C5.38184 19.2795 6.28658 21.7047 8.09606 23.7748C9.90554 25.8448 12.157 27.0824 14.8496 27.4882L18.0746 21.9076C17.7501 22.0028 17.2088 22.1897 16.5 22.1897Z" fill="white"/>
<path d="M13.0039 12.0048C14.0309 11.2091 15.197 10.9409 16.4999 10.9409C16.6736 10.9409 26.0545 10.9409 26.0545 10.9409C25.0699 9.26208 23.7308 7.84312 22.0374 6.85847C20.3433 5.87451 18.4977 5.38184 16.4999 5.38184C14.7627 5.38184 13.1408 5.75082 11.6357 6.48948C10.1299 7.22745 8.73661 8.30244 7.71582 9.68179L10.9408 15.1102C11.259 13.8657 11.9755 12.8018 13.0039 12.0048V12.0048Z" fill="white"/>
<path d="M26.7824 12.3307H20.3221C21.4513 13.4599 22.1899 14.908 22.1899 16.5C22.1899 17.6876 21.8571 18.773 21.1907 19.7576L16.6309 27.6182C19.671 27.589 22.2622 26.489 24.4052 24.3175C26.5469 22.1459 27.6184 19.5401 27.6184 16.5C27.6184 15.0817 27.3793 13.5898 26.7824 12.3307Z" fill="white"/>
<path d="M16.4999 20.6693C18.8025 20.6693 20.6692 18.8026 20.6692 16.5C20.6692 14.1974 18.8025 12.3307 16.4999 12.3307C14.1972 12.3307 12.3306 14.1974 12.3306 16.5C12.3306 18.8026 14.1972 20.6693 16.4999 20.6693Z" fill="white"/>
</g>
<defs>
<clipPath id="clip0_242_1704">
<rect width="33" height="33" fill="white"/>
</clipPath>
</defs>
</svg>
