<svg width="42" height="42" viewBox="0 0 42 42" fill="none" xmlns="http://www.w3.org/2000/svg">
<path d="M15.1668 38.5C18.3868 38.5 21.0002 35.8866 21.0002 32.6666V26.8333H15.1668C11.9468 26.8333 9.3335 29.4466 9.3335 32.6666C9.3335 35.8866 11.9468 38.5 15.1668 38.5Z" fill="#324A5E"/>
<path d="M9.3335 21C9.3335 17.78 11.9468 15.1667 15.1668 15.1667H21.0002V26.8334H15.1668C11.9468 26.8334 9.3335 24.22 9.3335 21Z" fill="#324A5E"/>
<path d="M9.3335 9.33333C9.3335 6.11333 11.9468 3.5 15.1668 3.5H21.0002V15.1667H15.1668C11.9468 15.1667 9.3335 12.5533 9.3335 9.33333Z" fill="#324A5E"/>
<path d="M21 3.5H26.8333C30.0533 3.5 32.6667 6.11333 32.6667 9.33333C32.6667 12.5533 30.0533 15.1667 26.8333 15.1667H21V3.5Z" fill="#324A5E"/>
<path d="M32.6667 21C32.6667 24.22 30.0533 26.8334 26.8333 26.8334C23.6133 26.8334 21 24.22 21 21C21 17.78 23.6133 15.1667 26.8333 15.1667C30.0533 15.1667 32.6667 17.78 32.6667 21Z" fill="#324A5E"/>
</svg>
