<svg width="100" height="100" viewBox="0 0 100 100" fill="none" xmlns="http://www.w3.org/2000/svg">
<path d="M50 1.2373C22.375 1.2373 0 23.6248 0 51.2373C0 73.3331 14.325 92.0706 34.1875 98.6748C36.6875 99.1456 37.6042 97.5998 37.6042 96.2706C37.6042 95.0831 37.5625 91.9373 37.5417 87.7706C23.6333 90.7873 20.7 81.0623 20.7 81.0623C18.425 75.2915 15.1375 73.7498 15.1375 73.7498C10.6083 70.6498 15.4875 70.7123 15.4875 70.7123C20.5083 71.0623 23.1458 75.8623 23.1458 75.8623C27.6042 83.5081 34.85 81.2998 37.7083 80.0206C38.1583 76.7873 39.4458 74.5831 40.875 73.3331C29.7708 72.0831 18.1 67.7831 18.1 48.6248C18.1 43.1665 20.0375 38.7081 23.2458 35.2081C22.6833 33.9456 20.9958 28.8623 23.6833 21.9748C23.6833 21.9748 27.8708 20.6331 37.4333 27.0998C41.4333 25.9873 45.6833 25.4373 49.9333 25.4123C54.1833 25.4373 58.4333 25.9873 62.4333 27.0998C71.9333 20.6331 76.1208 21.9748 76.1208 21.9748C78.8083 28.8623 77.1208 33.9456 76.6208 35.2081C79.8083 38.7081 81.7458 43.1665 81.7458 48.6248C81.7458 67.8331 70.0583 72.0623 58.9333 73.2915C60.6833 74.7915 62.3083 77.8581 62.3083 82.5415C62.3083 89.2331 62.2458 94.6081 62.2458 96.2331C62.2458 97.5456 63.1208 99.1081 65.6833 98.6081C85.6875 92.0498 100 73.2998 100 51.2373C100 23.6248 77.6125 1.2373 50 1.2373" fill="#29306A"/>
</svg>
