<svg width="50" height="50" viewBox="0 0 50 50" fill="none" xmlns="http://www.w3.org/2000/svg">
<g clip-path="url(#clip0_241_313)">
<path fill-rule="evenodd" clip-rule="evenodd" d="M31.8349 35.6831H19.4964C19.0293 35.6831 18.6689 35.3248 18.6689 34.893C18.6689 34.4243 19.0293 34.066 19.4964 34.066H31.8349C32.2668 34.066 32.6618 34.4244 32.6618 34.893C32.6618 35.3249 32.2668 35.6831 31.8349 35.6831Z" fill="#324A5E"/>
<path d="M28.9573 29.7842H22.3384V34.0661H28.9573V29.7842Z" fill="#21313E"/>
<path d="M41.2599 9.96344H10.0723V31.4748H41.2599V9.96344Z" fill="#324A5E"/>
<path d="M39.1007 12.1238H12.2305V29.3166H39.1007V12.1238Z" fill="white"/>
<path fill-rule="evenodd" clip-rule="evenodd" d="M42.0134 25.3604H35.1793V36.115H42.0134V25.3604ZM39.065 36.9421C39.065 36.6552 38.8495 36.4398 38.5974 36.4398C38.3453 36.4398 38.1298 36.6553 38.1298 36.9421C38.1298 37.1942 38.3453 37.4097 38.5974 37.4097C38.8495 37.4097 39.065 37.1942 39.065 36.9421ZM37.4826 24.6773C37.4826 24.7488 37.5183 24.7845 37.5898 24.7845H39.604C39.6399 24.7845 39.7113 24.7488 39.7113 24.6773C39.7113 24.6048 39.6399 24.5691 39.604 24.5691H37.5898C37.5183 24.5692 37.4826 24.6049 37.4826 24.6773ZM42.6617 24.8203V36.9421C42.6617 37.4464 42.2299 37.8783 41.7266 37.8783H35.4684C34.964 37.8783 34.5332 37.4464 34.5332 36.9421V24.8203C34.5332 24.3169 34.964 23.8861 35.4684 23.8861H41.7266C42.2297 23.8861 42.6617 24.3169 42.6617 24.8203V24.8203Z" fill="#253645"/>
<path d="M42.0859 25.2521H35.1069V36.259H42.0859V25.2521Z" fill="white"/>
<path fill-rule="evenodd" clip-rule="evenodd" d="M38.5975 36.4398C38.3453 36.4398 38.1299 36.6553 38.1299 36.9421C38.1299 37.1942 38.3453 37.4097 38.5975 37.4097C38.8496 37.4097 39.0651 37.1942 39.0651 36.9421C39.0651 36.6552 38.8497 36.4398 38.5975 36.4398Z" fill="white"/>
<path fill-rule="evenodd" clip-rule="evenodd" d="M37.5896 24.7845H39.6038C39.6397 24.7845 39.7111 24.7488 39.7111 24.6774C39.7111 24.6048 39.6397 24.5691 39.6038 24.5691H37.5896C37.5181 24.5691 37.4824 24.6048 37.4824 24.6774C37.4825 24.7488 37.5183 24.7845 37.5896 24.7845Z" fill="white"/>
<path fill-rule="evenodd" clip-rule="evenodd" d="M16.9787 25.3604H8.02171V36.115H16.9786V25.3604H16.9787ZM10.3244 24.6773C10.3244 24.7488 10.3606 24.7845 10.4321 24.7845H14.5688C14.6413 24.7845 14.7123 24.7488 14.7123 24.6773C14.7123 24.6048 14.6413 24.5691 14.5688 24.5691H10.4321C10.3606 24.5692 10.3244 24.6049 10.3244 24.6773ZM17.6617 24.8203V36.9421C17.6617 37.4464 17.2313 37.8783 16.6913 37.8783H8.30915C7.80637 37.8783 7.37451 37.4464 7.37451 36.9421V24.8203C7.37451 24.3169 7.80637 23.8861 8.30915 23.8861H16.6913C17.2313 23.8861 17.6617 24.3169 17.6617 24.8203V24.8203Z" fill="#253645"/>
<path fill-rule="evenodd" clip-rule="evenodd" d="M12.5189 36.4398C12.2305 36.4398 12.0513 36.6553 12.0513 36.9421C12.0513 37.1942 12.2305 37.4097 12.5189 37.4097C12.7706 37.4097 12.9859 37.1942 12.9859 36.9421C12.9859 36.6552 12.7706 36.4398 12.5189 36.4398V36.4398Z" fill="white"/>
<path fill-rule="evenodd" clip-rule="evenodd" d="M10.4324 24.7845H14.5692C14.6417 24.7845 14.7126 24.7488 14.7126 24.6774C14.7126 24.6048 14.6417 24.5691 14.5692 24.5691H10.4324C10.361 24.5691 10.3247 24.6048 10.3247 24.6774C10.3247 24.7488 10.361 24.7845 10.4324 24.7845V24.7845Z" fill="white"/>
<path d="M16.9789 25.3604H8.02197V36.115H16.9789V25.3604Z" fill="white"/>
</g>
<defs>
<clipPath id="clip0_241_313">
<rect width="50" height="50" fill="white"/>
</clipPath>
</defs>
</svg>
