<svg width="96" height="100" viewBox="0 0 96 100" fill="none" xmlns="http://www.w3.org/2000/svg">
<path d="M16.5788 17.5333C19.6871 20.0583 20.8538 19.8666 26.6954 19.4749L81.7579 16.1708C82.9246 16.1708 81.9538 15.0041 81.5663 14.8124L72.4163 8.19994C70.6663 6.84161 68.3288 5.28328 63.8538 5.67078L10.5413 9.56244C8.59961 9.75411 8.20794 10.7291 8.98294 11.5041L16.5788 17.5333ZM19.8829 30.3666V88.2999C19.8829 91.4124 21.4371 92.5791 24.9413 92.3833L85.4538 88.8833C88.9579 88.6916 89.3496 86.5499 89.3496 84.0208V26.4749C89.3496 23.9499 88.3788 22.5874 86.2329 22.7791L22.9954 26.4749C20.6621 26.6708 19.8829 27.8374 19.8829 30.3624V30.3666ZM79.6204 33.4708C80.0079 35.2208 79.6204 36.9708 77.8704 37.1708L74.9538 37.7541V80.5208C72.4204 81.8833 70.0871 82.6624 68.1413 82.6624C65.0246 82.6624 64.2454 81.6874 61.9121 78.7749L42.8413 48.8333V77.7999L48.8746 79.1666C48.8746 79.1666 48.8746 82.6666 44.0079 82.6666L30.5829 83.4416C30.1954 82.6666 30.5829 80.7208 31.9454 80.3333L35.4454 79.3624V41.0583L30.5913 40.6666C30.1996 38.9166 31.1746 36.3916 33.8954 36.1958L48.2954 35.2249L68.1454 65.5541V38.7208L63.0829 38.1416C62.6954 35.9999 64.2496 34.4458 66.1954 34.2541L79.6204 33.4708ZM6.06628 4.31244L61.5246 0.22911C68.3329 -0.354224 70.0871 0.0332763 74.3663 3.14578L92.0704 15.5874C94.9871 17.7249 95.9621 18.3083 95.9621 20.6416V88.8833C95.9621 93.1583 94.4079 95.6916 88.9621 96.0749L24.5538 99.9666C20.4704 100.162 18.5204 99.5791 16.3788 96.8541L3.34128 79.9374C1.00794 76.8249 0.0371094 74.4958 0.0371094 71.7708V11.1124C0.0371094 7.61661 1.59544 4.69578 6.06628 4.31244V4.31244Z" fill="black"/>
</svg>
