<svg width="100" height="100" viewBox="0 0 100 100" fill="none" xmlns="http://www.w3.org/2000/svg">
<path d="M36.1115 91.6664C43.7782 91.6664 50.0004 85.4442 50.0004 77.7776V63.8887H36.1115C28.4449 63.8887 22.2227 70.1109 22.2227 77.7776C22.2227 85.4442 28.4449 91.6664 36.1115 91.6664Z" fill="#0ACF83"/>
<path d="M22.2227 50.0002C22.2227 42.3336 28.4449 36.1113 36.1115 36.1113H50.0004V63.8891H36.1115C28.4449 63.8891 22.2227 57.6669 22.2227 50.0002Z" fill="#A259FF"/>
<path d="M22.2227 22.2219C22.2227 14.5552 28.4449 8.33301 36.1115 8.33301H50.0004V36.1108H36.1115C28.4449 36.1108 22.2227 29.8886 22.2227 22.2219Z" fill="#F24E1E"/>
<path d="M50 8.33301H63.8889C71.5556 8.33301 77.7778 14.5552 77.7778 22.2219C77.7778 29.8886 71.5556 36.1108 63.8889 36.1108H50V8.33301Z" fill="#FF7262"/>
<path d="M77.7778 50.0002C77.7778 57.6669 71.5556 63.8891 63.8889 63.8891C56.2222 63.8891 50 57.6669 50 50.0002C50 42.3336 56.2222 36.1113 63.8889 36.1113C71.5556 36.1113 77.7778 42.3336 77.7778 50.0002Z" fill="#1ABCFE"/>
</svg>
