<svg width="545" height="238" viewBox="0 0 545 238" fill="none" xmlns="http://www.w3.org/2000/svg">
<path d="M34.4888 36.6424C40.9695 41.9197 43.402 41.5191 55.5816 40.7005L170.385 33.7948C172.817 33.7948 170.793 31.3565 169.985 30.9559L150.908 17.1358C147.259 14.2969 142.386 11.04 133.055 11.8499L21.9008 19.9834C17.8525 20.384 17.0359 22.4218 18.6517 24.0415L34.4888 36.6424ZM41.3778 63.464V184.544C41.3778 191.05 44.6182 193.488 51.9242 193.079L178.091 185.764C185.397 185.363 186.213 180.887 186.213 175.601V55.3305C186.213 50.0532 184.189 47.2056 179.715 47.6062L47.8673 55.3305C43.0023 55.7398 41.3778 58.1781 41.3778 63.4553V63.464ZM165.928 69.9517C166.736 73.6092 165.928 77.2667 162.28 77.6847L156.198 78.9039V168.286C150.917 171.134 146.052 172.762 141.995 172.762C135.496 172.762 133.872 170.724 129.007 164.637L89.2451 102.059V162.6L101.824 165.456C101.824 165.456 101.824 172.771 91.6775 172.771L63.6869 174.391C62.879 172.771 63.6869 168.704 66.5277 167.894L73.825 165.865V85.8096L63.7043 84.991C62.8877 81.3335 64.9205 76.0563 70.5933 75.647L100.617 73.6179L142.003 137.006V80.9242L131.448 79.7138C130.64 75.2377 133.881 71.9895 137.938 71.5889L165.928 69.9517ZM12.5706 9.01095L128.199 0.476797C142.394 -0.742367 146.052 0.0675063 154.973 6.57262L191.886 32.5756C197.967 37.043 200 38.2622 200 43.1388V185.764C200 194.698 196.76 199.993 185.405 200.794L51.1163 208.928C42.6027 209.337 38.537 208.118 34.0718 202.423L6.88906 167.067C2.02415 160.562 0 155.694 0 149.999V23.2229C0 15.9166 3.24907 9.81211 12.5706 9.01095V9.01095Z" fill="black"/>
<path d="M257.8 143.6C256.413 143.6 255.133 143.173 253.96 142.32C252.787 141.467 252.2 140.187 252.2 138.48V84.56C252.2 82.1067 252.947 80.2933 254.44 79.12C256.04 77.84 257.747 77.2 259.56 77.2C262.333 77.2 264.36 78.2667 265.64 80.4L292.04 121.84C292.573 122.693 293.16 123.12 293.8 123.12C294.76 123.12 295.24 122.373 295.24 120.88L294.6 82.32C294.6 80.6133 295.187 79.3333 296.36 78.48C297.533 77.6267 298.813 77.2 300.2 77.2C301.587 77.2 302.867 77.6267 304.04 78.48C305.213 79.3333 305.8 80.6133 305.8 82.32V136.56C305.8 138.907 305.107 140.667 303.72 141.84C302.333 143.013 300.733 143.6 298.92 143.6C297.64 143.6 296.36 143.28 295.08 142.64C293.907 142.107 292.893 141.2 292.04 139.92L266.12 99.6C265.587 98.7467 265 98.32 264.36 98.32C263.4 98.32 262.92 99.0667 262.92 100.56L263.4 138.48C263.4 140.187 262.813 141.467 261.64 142.32C260.573 143.173 259.293 143.6 257.8 143.6ZM340.969 143.6C336.275 143.6 332.009 142.533 328.169 140.4C324.435 138.267 321.502 135.333 319.369 131.6C317.235 127.76 316.169 123.493 316.169 118.8C316.169 114.213 317.235 110.107 319.369 106.48C321.502 102.853 324.435 100.027 328.169 98C332.009 95.8667 336.275 94.8 340.969 94.8C345.662 94.8 349.875 95.8667 353.609 98C357.342 100.027 360.275 102.853 362.409 106.48C364.649 110.107 365.769 114.213 365.769 118.8C365.769 123.493 364.649 127.76 362.409 131.6C360.275 135.333 357.342 138.267 353.609 140.4C349.875 142.533 345.662 143.6 340.969 143.6ZM340.969 133.68C345.129 133.68 348.489 132.347 351.049 129.68C353.609 126.907 354.889 123.28 354.889 118.8C354.889 114.533 353.609 111.12 351.049 108.56C348.489 106 345.129 104.72 340.969 104.72C336.702 104.72 333.289 106 330.729 108.56C328.275 111.12 327.049 114.533 327.049 118.8C327.049 123.28 328.275 126.907 330.729 129.68C333.289 132.347 336.702 133.68 340.969 133.68ZM393.386 143.6C389.226 143.6 385.813 142.32 383.146 139.76C380.48 137.2 379.146 133.36 379.146 128.24V107.92C379.146 106.853 378.613 106.32 377.546 106.32H374.666C373.28 106.32 372.106 105.893 371.146 105.04C370.186 104.08 369.706 102.907 369.706 101.52C369.706 100.027 370.186 98.8 371.146 97.84C372.106 96.88 373.28 96.4 374.666 96.4H377.546C378.613 96.4 379.146 95.8667 379.146 94.8V81.36C379.146 79.8667 379.626 78.6933 380.586 77.84C381.653 76.88 382.933 76.4 384.426 76.4C386.026 76.4 387.306 76.88 388.266 77.84C389.333 78.6933 389.866 79.8667 389.866 81.36V94.8C389.866 95.8667 390.4 96.4 391.466 96.4H400.106C401.386 96.4 402.506 96.88 403.466 97.84C404.426 98.8 404.906 100.027 404.906 101.52C404.906 102.907 404.426 104.08 403.466 105.04C402.613 105.893 401.44 106.32 399.946 106.32H391.466C390.4 106.32 389.866 106.853 389.866 107.92V126.8C389.866 131.28 391.68 133.52 395.306 133.52C396.373 133.52 397.493 133.36 398.666 133.04C399.84 132.72 400.64 132.56 401.066 132.56C402.56 132.56 403.68 133.04 404.426 134C405.28 134.96 405.706 136.08 405.706 137.36C405.706 138.32 405.44 139.28 404.906 140.24C404.373 141.093 403.52 141.733 402.346 142.16C401.173 142.587 399.68 142.907 397.866 143.12C396.16 143.44 394.666 143.6 393.386 143.6ZM419.344 143.6C417.957 143.6 416.677 143.173 415.504 142.32C414.437 141.467 413.904 140.24 413.904 138.64V100.24C413.904 98.4267 414.437 97.0933 415.504 96.24C416.677 95.28 417.957 94.8 419.344 94.8C420.73 94.8 421.957 95.28 423.024 96.24C424.197 97.0933 424.784 98.4267 424.784 100.24V138.64C424.784 140.24 424.197 141.467 423.024 142.32C421.957 143.173 420.73 143.6 419.344 143.6ZM419.504 86C417.477 86 415.717 85.36 414.224 84.08C412.837 82.6933 412.144 81.04 412.144 79.12C412.144 77.3067 412.837 75.76 414.224 74.48C415.717 73.0933 417.477 72.4 419.504 72.4C421.424 72.4 423.077 73.0933 424.464 74.48C425.85 75.76 426.544 77.3067 426.544 79.12C426.544 81.04 425.85 82.6933 424.464 84.08C423.077 85.36 421.424 86 419.504 86ZM459.406 143.6C454.713 143.6 450.446 142.533 446.606 140.4C442.873 138.267 439.94 135.333 437.806 131.6C435.673 127.76 434.606 123.493 434.606 118.8C434.606 114.213 435.673 110.107 437.806 106.48C439.94 102.853 442.873 100.027 446.606 98C450.446 95.8667 454.713 94.8 459.406 94.8C464.1 94.8 468.313 95.8667 472.046 98C475.78 100.027 478.713 102.853 480.846 106.48C483.086 110.107 484.206 114.213 484.206 118.8C484.206 123.493 483.086 127.76 480.846 131.6C478.713 135.333 475.78 138.267 472.046 140.4C468.313 142.533 464.1 143.6 459.406 143.6ZM459.406 133.68C463.566 133.68 466.926 132.347 469.486 129.68C472.046 126.907 473.326 123.28 473.326 118.8C473.326 114.533 472.046 111.12 469.486 108.56C466.926 106 463.566 104.72 459.406 104.72C455.14 104.72 451.726 106 449.166 108.56C446.713 111.12 445.486 114.533 445.486 118.8C445.486 123.28 446.713 126.907 449.166 129.68C451.726 132.347 455.14 133.68 459.406 133.68ZM533.904 143.6C532.517 143.6 531.237 143.173 530.064 142.32C528.997 141.467 528.464 140.24 528.464 138.64V118.48C528.464 113.787 527.397 110.32 525.264 108.08C523.237 105.84 520.517 104.72 517.104 104.72C512.73 104.72 509.53 106.16 507.504 109.04C505.584 111.813 504.624 114.907 504.624 118.32V138.64C504.624 140.24 504.037 141.467 502.864 142.32C501.797 143.173 500.57 143.6 499.184 143.6C497.797 143.6 496.517 143.173 495.344 142.32C494.277 141.467 493.744 140.24 493.744 138.64V101.04C493.744 99.2267 494.277 97.8933 495.344 97.04C496.517 96.08 497.797 95.6 499.184 95.6C500.57 95.6 501.797 96.08 502.864 97.04C504.037 97.8933 504.624 99.2267 504.624 101.04C506.437 99.2267 508.784 97.7333 511.664 96.56C514.544 95.3867 517.264 94.8 519.824 94.8C525.797 94.8 530.544 96.72 534.064 100.56C537.584 104.4 539.344 110.053 539.344 117.52V138.64C539.344 140.24 538.757 141.467 537.584 142.32C536.41 143.173 535.184 143.6 533.904 143.6Z" fill="black"/>
</svg>
