<svg width="595" height="300" viewBox="0 0 595 300" fill="none" xmlns="http://www.w3.org/2000/svg">
<path d="M108.333 275C131.333 275 149.999 256.334 149.999 233.334V191.667H108.333C85.3327 191.667 66.666 210.334 66.666 233.334C66.666 256.334 85.3327 275 108.333 275Z" fill="#0ACF83"/>
<path d="M66.666 150C66.666 127 85.3327 108.333 108.333 108.333H149.999V191.666H108.333C85.3327 191.666 66.666 173 66.666 150Z" fill="#A259FF"/>
<path d="M66.666 66.6667C66.666 43.6667 85.3327 25 108.333 25H149.999V108.333H108.333C85.3327 108.333 66.666 89.6667 66.666 66.6667Z" fill="#F24E1E"/>
<path d="M150 25H191.667C214.667 25 233.333 43.6667 233.333 66.6667C233.333 89.6667 214.667 108.333 191.667 108.333H150V25Z" fill="#FF7262"/>
<path d="M233.333 150C233.333 173 214.667 191.666 191.667 191.666C168.667 191.666 150 173 150 150C150 127 168.667 108.333 191.667 108.333C214.667 108.333 233.333 127 233.333 150Z" fill="#1ABCFE"/>
<path d="M284.984 177V97.128H330.936V104.936H293.944V130.024H323.768V137.832H293.944V177H284.984Z" fill="#F24E1E"/>
<path d="M351.8 177V169.576H366.776V125.928H352.568V118.504H375.992V169.576H389.688V177H351.8ZM370.872 106.216C369.08 106.216 367.544 105.576 366.264 104.296C364.984 103.016 364.344 101.48 364.344 99.688C364.344 97.8107 364.941 96.232 366.136 94.952C367.416 93.672 368.995 93.032 370.872 93.032C372.664 93.032 374.2 93.7147 375.48 95.08C376.845 96.36 377.528 97.896 377.528 99.688C377.528 101.48 376.845 103.016 375.48 104.296C374.2 105.576 372.664 106.216 370.872 106.216Z" fill="#A259FF"/>
<path d="M434.616 199.016C430.52 199.016 426.808 198.675 423.48 197.992C420.237 197.395 417.421 196.456 415.032 195.176C412.728 193.981 410.936 192.445 409.656 190.568C408.461 188.691 407.864 186.472 407.864 183.912C407.864 181.523 408.376 179.389 409.4 177.512C410.424 175.635 411.747 174.099 413.368 172.904C415.075 171.624 416.909 170.685 418.872 170.088L422.712 172.392C421.176 173.331 419.939 174.269 419 175.208C418.061 176.147 417.379 177.213 416.952 178.408C416.525 179.688 416.312 181.181 416.312 182.888C416.312 184.339 416.739 185.619 417.592 186.728C418.445 187.923 419.64 188.904 421.176 189.672C422.797 190.44 424.717 191.037 426.936 191.464C429.24 191.891 431.843 192.104 434.744 192.104C438.669 192.104 441.827 191.677 444.216 190.824C446.691 190.056 448.525 188.947 449.72 187.496C450.915 186.131 451.512 184.552 451.512 182.76C451.512 180.883 451.171 179.347 450.488 178.152C449.805 176.957 448.397 176.061 446.264 175.464C444.131 174.867 440.888 174.568 436.536 174.568C433.549 174.568 430.819 174.44 428.344 174.184C425.869 173.928 423.651 173.501 421.688 172.904C419.725 172.307 418.061 171.581 416.696 170.728C415.416 169.789 414.435 168.68 413.752 167.4C413.069 166.12 412.728 164.627 412.728 162.92C412.728 160.701 413.325 158.568 414.52 156.52C415.8 154.472 417.507 152.509 419.64 150.632L423.992 154.088C423.139 155.027 422.456 155.88 421.944 156.648C421.432 157.331 421.048 158.013 420.792 158.696C420.621 159.293 420.536 159.976 420.536 160.744C420.536 162.109 421.048 163.219 422.072 164.072C423.181 164.925 425.059 165.565 427.704 165.992C430.349 166.333 433.933 166.504 438.456 166.504C442.979 166.504 446.648 166.888 449.464 167.656C452.28 168.339 454.413 169.363 455.864 170.728C457.4 172.093 458.467 173.672 459.064 175.464C459.661 177.256 459.96 179.219 459.96 181.352C459.96 183.656 459.491 185.832 458.552 187.88C457.699 190.013 456.291 191.891 454.328 193.512C452.365 195.219 449.763 196.541 446.52 197.48C443.277 198.504 439.309 199.016 434.616 199.016ZM431.928 157.16C427.747 157.16 424.12 156.264 421.048 154.472C417.976 152.595 415.587 150.12 413.88 147.048C412.259 143.891 411.448 140.435 411.448 136.68C411.448 132.925 412.259 129.512 413.88 126.44C415.587 123.368 417.976 120.936 421.048 119.144C424.12 117.267 427.747 116.328 431.928 116.328C436.195 116.328 439.821 117.267 442.808 119.144C445.88 120.936 448.227 123.368 449.848 126.44C451.555 129.512 452.408 132.925 452.408 136.68C452.408 140.435 451.555 143.891 449.848 147.048C448.227 150.12 445.88 152.595 442.808 154.472C439.821 156.264 436.195 157.16 431.928 157.16ZM431.928 149.48C434.403 149.48 436.579 148.925 438.456 147.816C440.419 146.621 441.955 145.043 443.064 143.08C444.173 141.117 444.728 138.984 444.728 136.68C444.728 134.291 444.173 132.157 443.064 130.28C441.955 128.317 440.419 126.781 438.456 125.672C436.579 124.477 434.403 123.88 431.928 123.88C429.453 123.88 427.235 124.477 425.272 125.672C423.395 126.781 421.901 128.317 420.792 130.28C419.683 132.157 419.128 134.291 419.128 136.68C419.128 138.984 419.683 141.117 420.792 143.08C421.901 145.043 423.395 146.621 425.272 147.816C427.235 148.925 429.453 149.48 431.928 149.48ZM448.952 127.976L445.368 123.752C447.843 121.277 450.403 119.485 453.048 118.376C455.779 117.181 458.979 116.712 462.648 116.968L463.8 124.52C460.984 124.264 458.339 124.349 455.864 124.776C453.389 125.203 451.085 126.269 448.952 127.976Z" fill="#0ACF83"/>
<path d="M471.864 177V118.504H480.312V124.264C481.251 122.813 482.317 121.576 483.512 120.552C484.792 119.443 486.157 118.589 487.608 117.992C489.144 117.395 490.68 117.096 492.216 117.096C493.923 117.096 495.501 117.48 496.952 118.248C498.403 118.931 499.597 119.912 500.536 121.192C501.56 122.472 502.243 123.965 502.584 125.672C503.352 123.965 504.376 122.472 505.656 121.192C507.021 119.912 508.557 118.931 510.264 118.248C512.056 117.48 513.891 117.096 515.768 117.096C517.731 117.096 519.437 117.48 520.888 118.248C522.339 119.016 523.533 120.083 524.472 121.448C525.411 122.728 526.093 124.307 526.52 126.184C526.947 127.976 527.117 129.939 527.032 132.072V177H518.584V135.528C518.584 131.944 518.328 129.341 517.816 127.72C517.389 126.099 516.749 125.075 515.896 124.648C515.043 124.136 514.104 123.88 513.08 123.88C511.459 123.88 509.923 124.648 508.472 126.184C507.107 127.635 505.955 129.469 505.016 131.688C504.163 133.907 503.736 136.125 503.736 138.344V177H495.16V136.296C495.16 131.432 494.691 128.189 493.752 126.568C492.899 124.947 491.235 124.136 488.76 124.136C487.821 124.136 486.84 124.477 485.816 125.16C484.877 125.757 483.981 126.653 483.128 127.848C482.275 128.957 481.592 130.365 481.08 132.072C480.568 133.779 480.312 135.741 480.312 137.96V177H471.864Z" fill="#FF7262"/>
<path d="M558.008 178.408C551.352 178.408 546.232 176.915 542.648 173.928C539.064 170.856 537.272 166.973 537.272 162.28C537.272 159.123 538.04 156.307 539.576 153.832C541.112 151.272 543.203 149.139 545.848 147.432C548.579 145.64 551.736 144.275 555.32 143.336C558.904 142.397 562.701 141.928 566.712 141.928C568.163 141.928 569.613 141.971 571.064 142.056C572.6 142.056 574.179 142.141 575.8 142.312C577.507 142.397 579.256 142.568 581.048 142.824L581.304 149.864C579.768 149.608 578.189 149.437 576.568 149.352C575.032 149.181 573.496 149.053 571.96 148.968C570.424 148.883 568.931 148.84 567.48 148.84C564.408 148.84 561.592 149.096 559.032 149.608C556.472 150.12 554.253 150.888 552.376 151.912C550.499 152.936 549.048 154.259 548.024 155.88C547 157.501 546.488 159.464 546.488 161.768C546.488 163.56 546.787 165.096 547.384 166.376C548.067 167.571 548.963 168.552 550.072 169.32C551.181 170.003 552.461 170.515 553.912 170.856C555.448 171.197 557.112 171.368 558.904 171.368C562.232 171.368 565.176 170.856 567.736 169.832C570.381 168.723 572.6 167.144 574.392 165.096C576.269 163.048 577.677 160.531 578.616 157.544C579.555 154.557 580.024 151.144 580.024 147.304C580.024 141.501 579.341 136.979 577.976 133.736C576.611 130.493 574.563 128.189 571.832 126.824C569.187 125.459 565.773 124.776 561.592 124.776C558.776 124.776 556.003 125.331 553.272 126.44C550.541 127.464 548.067 129.085 545.848 131.304L541.368 125.416C544.099 122.685 547.256 120.637 550.84 119.272C554.424 117.907 558.221 117.224 562.232 117.224C566.072 117.224 569.571 117.693 572.728 118.632C575.885 119.571 578.573 121.149 580.792 123.368C583.096 125.501 584.845 128.403 586.04 132.072C587.32 135.741 587.96 140.349 587.96 145.896V177H577.976V168.04C576.867 170.173 575.501 171.923 573.88 173.288C572.344 174.653 570.68 175.72 568.888 176.488C567.096 177.171 565.261 177.64 563.384 177.896C561.507 178.237 559.715 178.408 558.008 178.408Z" fill="#1ABCFE"/>
</svg>
