<svg width="100" height="100" viewBox="0 0 100 100" fill="none" xmlns="http://www.w3.org/2000/svg">
<path d="M98.1083 45.5417L54.4458 1.8834C51.9292 -0.629102 47.8542 -0.629102 45.3292 1.8834L36.2833 10.9459L47.7833 22.4459C50.4708 21.5501 53.5292 22.1542 55.6542 24.2834C57.8042 26.4292 58.3958 29.5251 57.4792 32.2001L68.5542 43.2834C71.2417 42.3542 74.3333 42.9584 76.4708 45.0959C79.475 48.0959 79.475 52.9459 76.4708 55.9459C73.475 58.9417 68.6333 58.9417 65.6375 55.9459C63.3917 53.6917 62.8292 50.3751 63.9542 47.6292L53.5833 37.3126V64.5001C54.3167 64.8584 55.0083 65.3459 55.6167 65.9501C58.5875 68.9542 58.5875 73.7959 55.6167 76.7834C52.6208 79.7876 47.7458 79.7876 44.7458 76.7834C41.75 73.7876 41.75 68.9542 44.7458 65.9584C45.5042 65.2084 46.3583 64.6417 47.2667 64.2667V36.8126C46.3625 36.4334 45.5 35.8876 44.7667 35.1417C42.4958 32.8709 41.95 29.5501 43.1167 26.7709L31.8167 15.4167L1.875 45.3376C-0.625 47.8584 -0.625 51.9376 1.875 54.4584L45.5417 98.1126C48.0583 100.629 52.1333 100.629 54.65 98.1126L98.1083 54.6542C100.629 52.1417 100.629 48.0626 98.1083 45.5417" fill="#F05032"/>
</svg>
